<?xml version="1.0" encoding="UTF-8"?>
<mxfile host="app.diagrams.net">
  <diagram name="System Architecture (Refined)">
    <mxGraphModel>
      <root>
        <mxCell id="0"/>
        <mxCell id="1" parent="0"/>
        <mxCell id="2" value="Web Browser" style="rounded=1;whiteSpace=wrap;html=1;" vertex="1" parent="1">
          <mxGeometry x="100" y="100" width="120" height="60" as="geometry"/>
        </mxCell>
        <mxCell id="3" value="API Gateway" style="rounded=1;whiteSpace=wrap;html=1;" vertex="1" parent="1">
          <mxGeometry x="250" y="100" width="120" height="60" as="geometry"/>
        </mxCell>
        <mxCell id="4" value="Backend Service (Microservice)" style="rounded=1;whiteSpace=wrap;html=1;" vertex="1" parent="3">
          <mxGeometry x="400" y="100" width="120" height="60" as="geometry"/>
        </mxCell>
        <mxCell id="5" value="Database (Containerized)" style="rounded=1;whiteSpace=wrap;html=1;" vertex="1" parent="4">
          <mxGeometry x="550" y="100" width="120" height="60" as="geometry"/>
        </mxCell>
        <mxCell id="6" value="Containerization (Docker Swarm)" style="rounded=1;whiteSpace=wrap;html=1;" vertex="1" parent="5">
          <mxGeometry x="700" y="100" width="120" height="60" as="geometry"/>
        </mxCell>
      </root>
    </mxGraphModel>
  </diagram>
</mxfile>